<?xml version="1.0" encoding="utf-8"?>
<!-- Generator: Adobe Illustrator 19.1.0, SVG Export Plug-In . SVG Version: 6.00 Build 0)  -->
<svg version="1.1" id="Layer_1" xmlns="http://www.w3.org/2000/svg" xmlns:xlink="http://www.w3.org/1999/xlink" x="0px" y="0px"
	 width="1000px" height="1000px" viewBox="0 0 1000 1000" style="enable-background:new 0 0 1000 1000;" xml:space="preserve">
<path id="path2652" fill="#0b533b" d="M527.7,32.9c-0.1,3.3-0.4,13.1-0.6,21.9l-0.3,16l-9-9.3c-10.4-10.8-11.8-11.2-11.7-3.8c0,3,4.3,10.1,9.4,15.8
	c8.2,9.1,9.3,11.9,9.8,24c0.4,9.1-0.3,13.2-2.1,12.1c-1.4-0.9-2.5-3.2-2.5-5.1c0-1.9-1.1-3.5-2.4-3.5c-1.3,0-2.4-4.2-2.4-9.4
	c0-10.8-6.1-18.4-10-12.3c-1.2,1.9-1.7,4.8-1.1,6.4c1.3,3.6-5.7,1.2-10.4-3.4c-1.8-1.8-4.6-3.1-6.4-3.1c-6.6,0-5.5,6.9,2.5,16.1
	c9.5,10.9,10.1,13.1,3.7,14.8c-3.1,0.8-4.2,2.7-3.3,5.9c1.4,5.2,7.9,6.2,12.3,1.8c3.3-3.3,3.4-3.1,4,6c0.5,7.6,0,7.8-8.3,3
	c-8.2-4.7-9.7-4.6-9.7,1c0,2.6,3.6,7.5,7.9,10.9c5.9,4.7,6.6,5.9,2.7,4.9c-3.4-0.9-5.7,0-6.6,2.5c-2.1,5.5-3.8,5-20-5.6
	c-8-5.2-15.7-9-17.1-8.4c-5.1,1.9-1.9,11.2,5.3,15.1l7.2,3.9l-6.5,0.8c-3.6,0.4-7.1,2.3-7.8,4.1c-1.4,3.6,4.7,7.1,8.4,4.8
	c1.2-0.8,2.3-0.2,2.3,1.2c0,1.4,1.9,2.6,4.3,2.7c3.1,0.1,3.3,0.5,0.8,1.5c-2.6,1-2.1,2.4,2.2,5.6l5.7,4.3l-10.2,1.8
	c-10.5,1.8-12.9,5.7-6.6,10.9c2.4,2,4.9,2.2,7.6,0.6c4.6-2.6,13.2-1.1,13.2,2.2c0,1.2,2.2,2.2,4.9,2.2c2.7,0,4.9-1.1,4.9-2.4
	c0-1.3,2.5-2.4,5.5-2.4l5.5,0.1l-6,4.9c-4.7,3.9-5.3,5.4-2.7,7c3.7,2.3,10,0.6,13.1-3.4c1.1-1.5,1.4,0.4,0.6,4.1
	c-1.2,5.6-0.7,6.7,3.4,6.7c2.7,0,5-1.4,5.1-3c0.1-2.1,0.6-1.9,1.5,0.4c1,2.5,2.2,1.8,4.5-2.4l3.1-5.9l3,6.7c1.7,3.7,2.3,7.5,1.3,8.5
	c-1,1-9.7,2.2-19.4,2.7c-16.2,0.8-18.6,0.3-29.3-6.5c-10.7-6.8-18.5-7.9-18.5-2.7c0,1.2,3,3.8,6.7,5.9l6.7,3.8l-8.5-1.6
	c-8.4-1.5-22.6-8.9-28.9-14.9c-1.8-1.7-5.3-3.1-7.9-3.1c-5,0-6.3,4.7-2.4,8.6c1.5,1.5-2.3,2.6-10.2,3.1c-6.9,0.4-13.5,1.3-14.5,2
	c-8,4.9,11.7,13.9,26,11.9l9.8-1.4l-6.9,3.9c-4.1,2.4-6.6,5.5-6.1,8c1.2,6,11.7,4,18.4-3.5c3.1-3.5,7.3-5.7,9.7-5.2
	c3.4,0.8,2.9,1.6-2.2,3.7c-8.3,3.4-10.8,7.4-5.8,9.4c2.2,0.8,3.4,2.9,2.7,4.6c-0.7,1.7,0.4,3.8,2.4,4.5c1.9,0.7,3.5,0.4,3.5-0.8
	c0-2,7.9-5.4,13.8-6c1.6-0.2,5.1-2.4,7.9-4.9c2.8-2.5,5.1-3.8,5.1-2.8c0,2.5-5.3,7.5-11.6,10.9c-3,1.6-5.4,4-5.4,5.3
	c0,4.6,7.5,5.3,12.1,1.1c4.4-4,4.5-3.9,3.3,0.9c-1.9,7.1,3.1,6.4,8.1-1.1c3.1-4.7,4.6-5.5,6.2-3c1.7,2.6,2.4,2.6,4.1-0.1
	c1.2-1.8,4.2-3,6.7-2.7c9.8,1.2,22.8-7.5,23.1-15.8c0.2-4.4,0.5-4.3,2,1c1.4,5,0.3,7.5-6.9,13.9c-4.8,4.3-15.5,11.4-23.8,15.8
	l-15.1,7.9l-11.7-5.9c-6.4-3.2-13.1-6.1-14.8-6.4c-4.3-0.8-3.8,3.9,1.2,9.7c3.8,4.5,3.8,4.6,0.1,1.8c-2.3-1.8-5.1-2.6-6.2-1.9
	c-1.2,0.7-5.2-0.3-8.9-2.2c-9-4.7-11.8-4.4-10.1,0.8c1.1,3.4-0.1,4.2-5.9,4c-4-0.1-7.9-0.9-8.6-1.6c-3-3-10.8,1.4-10.8,6
	c0,3.7,1.2,4.6,5.1,3.6c4.9-1.3,4.9-1.2,0.8,3.3c-4.4,4.9-3.7,5.5,5.6,4.8c4.2-0.3,5.1,0.5,3.9,3.7c-1.3,3.4-0.5,4,4.6,3
	c5-1,5.9-0.4,4.9,3.3c-1.3,5,0.2,5.5,6.3,2.3c6-3.2,13.5,6.9,8.6,11.5c-2.7,2.6-3.6,2.5-4.6-0.3c-0.7-1.9-5-3.5-9.8-3.7
	c-4.7-0.2-8,0.6-7.2,1.8c0.7,1.2-0.8,1.5-3.5,0.8c-6.2-1.6-6.3,2.1-0.3,5.9c3.2,2,4.2,4.7,3.3,9.1c-1.5,7.7-1.8,7.8-10.8,0.2
	c-4-3.3-8.8-6.1-10.7-6.1c-4.1,0-4.3,1.2-1.1,7.1c2.6,4.8,1,4.9-17.5,1.4c-6-1.1-9.1-0.8-9.1,0.9c0,3.2,12.6,10.1,18.4,10.1
	c3.3,0,3.5,0.6,1.1,3.6c-2.4,2.9-2.3,3.9,0.5,5c2,0.8,4.6,1.1,5.8,0.9c5.1-0.9,8.3,0.4,7.7,3.3c-0.4,1.9,2,3,6.1,2.9
	c5.2-0.1,6.7,1,6.8,4.9c0.1,4.8,0.3,4.8,4.9-0.8c3.8-4.6,4.8-4.9,4.8-1.7c0,2.2,1.1,3.4,2.4,2.6c1.3-0.8,3.5,1.3,4.8,4.8
	c1.3,3.5,4.1,6.9,6.1,7.7c2,0.8,3.7,2.9,3.7,4.8c0,1.9,1.8,3.4,4,3.4c2.2,0,5.4,1.9,7.1,4.2c2.9,4,3.5,3.9,8.8-0.6l5.7-4.8l-4.3,5.1
	c-2.6,3.1-10.7,6.7-21,9.1c-21.5,5.2-26.6,5-35.4-0.8c-8.1-5.3-12.1-4.4-9.9,2.5c1.2,3.9,0.3,4.7-5.5,4.7c-3.8,0-8.1-1.1-9.4-2.4
	c-1.6-1.6-4-1.3-7.2,1c-4.5,3.3-4.4,3.6,3.1,7.9c5.7,3.2,7.5,5.7,6.5,8.9c-0.9,2.8-0.2,4.2,1.9,4c7.1-1,9.8,0.2,8.4,3.7
	c-2.3,6.1,6.6,9,13.3,4.3c4.4-3.1,5.1-3.2,2.9-0.5c-4.1,5.1-0.2,10.5,6.2,8.5c9.2-2.9,11.7,1.8,2.7,5c-11.6,4.2-23.2,4.1-27.6-0.2
	c-4.8-4.8-12.3-4.9-10.4-0.1c1.1,3-0.6,3.4-9.5,2.1c-13.1-1.8-14.7,2.3-2.7,6.6c5.9,2.1,7.9,4.2,7.2,7.2c-1.3,5,6.4,7.7,12.3,4.4
	c3.2-1.8,4-1.1,4,3.7c0,4.9,0.9,5.8,5.3,4.6c4.3-1.1,4.9-0.6,3.6,2.9c-1.3,3.5-0.7,4.2,3.3,3.1c2.7-0.7,4.9-0.3,4.9,0.9
	c0,4.3,5.2,2.1,11.6-4.8c7.8-8.3,12.5-10.2,18.2-7.2c6.7,3.4,5,6.2-3,5c-8.4-1.2-9.6,2.5-3.6,11.1c3.5,5,3.5,5.4-1,5.4
	c-2.7,0-6.5,1.6-8.5,3.7c-2,2-5.3,3.7-7.3,3.7c-2,0-4.3,1-5.1,2.3c-0.8,1.3-5.7,2.2-10.9,2.1c-5.2-0.1-10.9,0.7-12.6,1.8
	c-1.8,1.1-6.7,1.7-11,1.4c-6.5-0.4-8,0.4-8.6,5c-0.6,4-2.5,5.6-6.8,5.8c-3.4,0.1-7.2,0.6-8.5,0.9c-1.3,0.3-4.4,0.4-6.7,0.2
	c-2.3-0.2-4.3,0.5-4.3,1.7c0,3.2,13.5,10.4,19.6,10.4c5.3,0,5.4,0.1,1.1,4.9c-4.3,4.7-4.3,4.9,2,4.9c4.8,0,6,0.9,4.9,3.7
	c-1.2,3.1-0.2,3.5,5.6,2.1c3.9-0.9,7.6-1.6,8.2-1.6c7.6,0.1,9.4,1,8.2,4c-2.5,6.6,3.8,6.4,7.4-0.2c3.4-6.4,3.6-6.4,3.7-1.3
	c0.1,3,1,5.6,2,5.7c14.9,2.2,17.3,1.5,20.3-5.8l3-7.3l2.1,5.8l2.1,5.9l4.7-6.1c4.7-6.1,4.7-6.1,4.7-0.6c0.1,7.4,4.4,7,6.3-0.6
	c0.8-3.4,2.6-6.1,3.9-6.1c1.3,0,1.5,1.2,0.6,2.7c-1.2,1.9,0.7,2.2,6.2,1c5.9-1.3,7.7-1,6.9,1.3c-1.5,4.5-16.8,12.1-24.3,12.1
	c-3.6,0-7,1.4-7.6,3c-0.7,1.9-5.5,2.9-12.4,2.8c-6.2-0.1-11.3,0.7-11.3,1.7c0,4.7,8.5,9.8,15.2,9.1c4-0.4,7.4,0.2,7.6,1.4
	c0.6,4.1-13.6,6.3-48.3,7.7c-39.1,1.5-54.8,3.2-54.8,5.9c0,1-2.7,1.3-6.1,0.7c-3.5-0.7-6.1,0-6.1,1.4c0,3.4,8,7.7,14.4,7.7
	c2.8,0,5.1,1.1,5.1,2.4c0,1.3-1.2,2.4-2.6,2.4c-1.4,0-5,2.3-7.9,5.1l-5.3,5.2l7.9-1.1c5.2-0.7,7.9-0.1,7.9,1.9
	c0,1.8,1.9,2.5,4.9,1.8c2.7-0.7,4.9-0.1,4.9,1.4c0,3.9,6.2,3.4,9.7-0.9c1.7-2,4.1-3.7,5.5-3.7c1.4,0,0.8,2-1.4,4.4
	c-2.2,2.4-4,5.2-4,6.1c0,2.6,9.3,1.9,11-0.8c2.4-3.9,5.6-2.8,7.3,2.4c2,6.2,4.7,6.1,13.6-0.2l7.1-5l-1.5,7.5
	c-1.8,9.2,2.6,9.9,12.5,2.1c6.5-5.1,6.7-5.1,4.1-0.3c-3,5.7-1.6,8.3,3.5,6.4c1.9-0.7,5.1,0,7.1,1.7c2.5,2.1,3.7,2.2,3.7,0.3
	c0-1.5,1.6-2.7,3.7-2.7c2,0,3.7,1.5,3.7,3.4c0,2.4,2.2,3.2,6.7,2.7c25.4-2.9-7.4,11.9-36.9,16.6c-19.3,3.1-21.2,3-27.6-1.2
	c-3.8-2.5-8.1-4.5-9.8-4.5c-5,0-3.4,4.9,2.4,7.4c4,1.7,2.6,1.9-5.5,0.7c-6-0.9-13.7-1.5-17.1-1.4c-3.4,0.2-11.5-1.3-18.1-3.2
	c-6.6-1.9-12.4-3.2-12.8-2.7c-2.5,2.5,13.1,12.6,21.8,14l10.4,1.7l-9.1,0.3c-6.4,0.2-9.1,1.4-9.1,4c0,2,1.9,3.8,4.3,4
	c2.3,0.2,5.4,0.6,6.7,0.9c1.3,0.3,4,0.7,5.9,0.8c2.6,0.2,2.3,1.2-1.2,3.7c-6,4.4-3.2,7.6,3.6,4c4.2-2.2,5.1-2,5.1,1.3
	c0,3.1,1.7,3.8,7.9,2.9c4.4-0.6,10.1-1.9,12.8-2.9c4.8-1.8,4.7-1.7,0.1,2.1c-4.7,3.9-3.7,4.8,4.2,4c2.4-0.2,4.3,1.3,4.3,3.4
	c0,5.2,2,4.8,7.8-1.7l4.9-5.5l-4,6.6c-2.2,3.6-3.9,7.7-3.9,9.1c0,3.8,12,1,17.7-4.1c4.8-4.3,4.8-4.2,3,1.8c-2.6,8.3-5.6,10-28,16.7
	c-18.6,5.6-19.8,5.7-29.8,1.8c-11-4.2-26.1-5.4-26.1-2.1c0,1.1,1.3,3.3,2.9,4.9c2,2-1.3,1.7-10-0.9c-7.1-2.1-14.6-3.2-16.7-2.4
	c-3.2,1.2-2.9,2.4,1.8,7.5l5.6,5.9l-8.2-2.4c-10.6-3-23.5-3-25.3,0c-1.9,3.1,14.4,9.8,24,9.8h7.7l-7.2,5.7c-7.1,5.7-7,13.1,0.1,10.4
	c2.4-0.9,3.4,0.6,3.4,4.7c0,4.3,1.3,6,4.6,6c2.6,0,6.4,1.7,8.4,3.7c3.1,3.1,4.6,3.2,8.7,0.6c2.7-1.7,5-3.9,5-4.9
	c0-1,1.9,0.1,4.3,2.4c4.7,4.5,6,10.4,2.4,10.4c-1.2,0-1.4,1.2-0.5,2.7c1.2,1.9-0.6,2.2-5.9,1.1c-4.9-1.1-7.6-0.8-7.6,0.9
	c0,1.5-4.7,2.7-11,2.7c-11.4,0-13.6,2.1-7.3,7.3c2.4,2,7.6,2.6,15.2,1.6l11.6-1.5l-9.1,4.8c-6.3,3.3-8.6,6-7.6,8.6
	c0.9,2.4,2.9,3.2,5.4,2.1c2.2-0.9,5.6-1.9,7.6-2.2c2-0.3,2.3-0.1,0.6,0.4c-6.2,2.1-3,6,3.7,4.5c4.8-1.1,5.7-0.9,3.1,0.8
	c-6.4,4.3-0.7,5.5,7,1.5c4.1-2.1,7.5-2.9,7.5-1.6c0,1.3-1.4,2.8-3,3.4c-1.7,0.6-2.2,2-1.1,3.1c1.1,1.1,5,0.9,8.9-0.6
	c5.8-2.2,6.9-2,5.8,0.8c-0.9,2.4-0.1,2.9,3.2,1.8c3.8-1.3,4-1,1.4,1.8c-2.5,2.7-10.9,3.3-38.4,2.9c-21.3-0.3-35.2,0.4-35.2,1.8
	c0,1.3,1.7,2.4,3.8,2.4c2.1,0,5.4,1.5,7.2,3.4c2.9,2.9,2.9,3.6-0.4,4.9c-2.1,0.8-7.3,1.4-11.5,1.4c-9,0-15.1,3.2-12.9,6.7
	c2.7,4.3,14.7,5.1,24.7,1.6c13.3-4.6,14-4.4,7.2,2.5c-8.6,8.6-8,13.8,1.3,11.1c4-1.1,8.4-2.8,9.7-3.7c1.4-0.9,2.6,0.5,2.8,2.9
	c0.2,2.4,0.5,5.6,0.7,7.2c0.1,1.6,1,3.7,1.9,4.6c1.9,1.9,16.6-6.3,16.6-9.3c0-1.1,1-1.4,2.3-0.6c1.5,0.9,1.5,3.7,0,7.6
	c-1.3,3.4-2.3,7.3-2.3,8.6c0,3.2,11.5-5.1,23.1-16.7c8.6-8.6,9.9-7.1,1.8,2.2c-2,2.3-2.8,6-2,8.3c1.4,3.7,2.2,3.4,7.8-1.8l6.3-5.8
	l-0.8,6.1c-0.8,5.6-2.4,6.3-20.3,9.3c-12.6,2.1-20.8,2.4-23.2,0.9c-6.1-3.8-19.4-6-19.4-3.3c0,1.3,1.9,3,4.3,3.6
	c2.3,0.6-1.2,0.6-7.9,0c-9.8-0.9-11.6-0.5-9.1,2c4.7,4.7,3.6,6.4-3,5.2c-7.9-1.5-18.9,1.3-17.1,4.3c0.8,1.3,4,2.4,7,2.4
	c10.4,0,9,3.4-3.7,8.4c-21.6,8.7-16.9,15.2,5.3,7.3c11.2-4,15.7-3.3,7.4,1.1c-2.8,1.5-5,4.4-5,6.6c0,2.9,1.5,3.5,6.5,2.2
	c5.7-1.4,6.2-1.2,3.3,2.2c-6.6,7.9,0.4,7.9,11.3,0c5.1-3.7,5.3-3.7,3.9,1.8c-1.3,5.1-1,5.3,2.7,2.3c3.7-3,3.9-2.9,2.4,1.2
	c-1.5,4-0.9,3.9,4.4-0.9c6.2-5.6,10-5.2,7.7,0.9c-1.9,4.9,4,4.2,13.2-1.4c4.4-2.7,7.9-3.6,7.9-2.1c0,1.6,2.6,2.1,6.7,1.1
	c4.5-1,5.5-0.8,3,0.7c-2,1.2-9.7,3.4-17.1,4.9c-15.9,3.3-20.8,5.9-18.3,9.9c1.7,2.7,5,2.4,19.6-1.5c3.7-1,3,0.5-3,6.4
	c-4.4,4.2-7.9,8.2-7.9,8.8c0,2.4,13.5-0.6,21.3-4.7c8.5-4.5,9.9-3.2,4.2,4.3c-4.9,6.5-4.5,9.4,1.3,7.9c3.2-0.8,4.9,0,4.9,2.2
	c0,4.6,2.2,4.3,7.9-0.8c4.5-4.1,4.7-4,3.9,0.6c-1.3,7.4,12.2,5.2,19.4-3.2l5.6-6.5l-1.6,7.9c-2.1,10.5,4,10.7,13.5,0.6
	c3.8-4,7.1-7.3,7.6-7.3c0.5,0,1,2.8,1.2,6.3c0.6,9.6,4.5,12.2,9.6,6.2c4-4.7,4.6-4.8,7.5-0.9c2.9,3.8,3.3,3.8,4.6-1.1
	c0.9-3.2,2.8-4.8,4.8-4c2.1,0.8,3.9-1.1,4.9-5.3c1.1-4.5,2.3-5.6,3.6-3.5c1.1,1.7,4.2,3.5,7,3.9c4,0.6,6.3-1.6,10.4-10.1
	c5.3-11,11-15.2,8.1-6.1c-1.9,5.9-0.5,6.1,7.4,0.9c3.3-2.2,6.1-6.3,6.2-9.1c0.2-4.2,0.6-4.3,1.4-0.9c1.8,7.1,5.6,2.2,5.7-7.5
	c0.1-7.3,0.5-8.2,2.5-4.7c1.4,2.3,4.8,4.3,7.5,4.3c4.8,0,5,0.9,3.4,18.9c-1.1,12.6-3.6,22.8-7.6,30.7c-0.9,1.8-1.7,3.4-2.5,5
	c-1.3,2.8,0.7,6,3.8,6h54.1c2.7-2.1,1.5-5.9-1.3-12.6c-4.3-10.3-6-31.5-2.6-32.6c1.3-0.4,4.3,2.4,6.7,6.5c4.4,7.5,9.9,10.3,7.4,3.7
	c-2.9-7.5,1.7-3.4,4.9,4.5c2.6,6.3,4.7,8.2,9.1,7.8c3.2-0.2,7.3,0.7,9.2,2.1c2.5,1.8,3.7,1.8,4.4-0.3c0.6-1.9,2.6-1.3,5.7,1.8
	c6.3,6.3,9.4,6,7.9-0.8c-0.7-3.2-0.4-4.4,0.8-2.9c2.8,3.6,10.6,6.2,10.6,3.6c0-2.5,13.5-1.6,20.5,1.3c3.7,1.5,4.4,1,3.2-2.1
	c-0.8-2.2-0.2-4.4,1.4-5c2.2-0.8,2.3-1.9-0.1-4.3c-5.5-5.9-3.2-6.6,5.9-2c10.1,5.1,12.9,4.4,8-2.1c-2.6-3.4-2.6-3.7-0.1-1.4
	c1.8,1.6,4.7,2.3,6.6,1.6c1.8-0.7,3.4-0.3,3.4,0.9c0,1.2,1.5,4.3,3.3,6.9c2.9,4,4,4.2,7.5,1.3c3.5-2.9,4.5-2.5,7.9,2.4l4,5.6
	l2.2-5.9c2-5.5,2.4-5.6,5.3-1.6c3.9,5.2,5.6,5.3,10.4,0.5c3-3,3.1-4.4,0.8-7.3c-1.6-2-2.3-3.6-1.4-3.6c0.9,0,0.3-2.5-1.2-5.5
	c-2.4-4.6-1.5-4.3,5.4,1.9c15.2,13.7,16.2,14.2,20.5,9.9c2.2-2.2,3.1-5.2,2.1-6.9c-1-1.7,0.2-1.4,2.9,0.7
	c12.9,10.3,25.9,12.4,17.1,2.7c-4-4.4-3.8-4.7,2.5-6.3l6.6-1.7l-7.2-5.8c-9.4-7.6-4.4-7.7,9.1,0c5.8,3.3,12,6.1,13.7,6.1
	c4.9,0.1,3.5-3.8-2.4-6.7c-4.9-2.4-4.6-2.7,4.3-2.8c5.4-0.1,12-1.8,14.6-3.7c4.5-3.4,4.4-3.6-2.5-3.7c-10.4-0.1-47.5-6.9-55.3-10.1
	c-9.5-3.9-11.3-9.8-1.9-6.3c8.2,3.1,12.4,0.5,6.3-3.9c-3.5-2.6-2.4-2.9,6.9-2.1c11.9,0.9,14.4-2,5.6-6.5c-4.7-2.4-3.9-2.7,6.4-2.2
	c13.9,0.7,17.9-3.9,5.9-6.8l-8-2l7.9-0.9c9.3-1.1,10.1-3.6,2.4-7.5c-4.5-2.3-2.6-2.6,10.4-1.5c14.6,1.2,15.4,1,11-2.4
	c-2.6-2.1-6.6-3.7-9-3.7c-2.3,0-5-1.2-5.9-2.7c-1-1.7,0.5-2.5,4.1-2.2c10.2,0.8,16.7,0,16.7-2.1c0-1.2-7.7-2.9-17.1-3.8
	c-9.4-0.9-16.6-2.6-15.9-3.7c0.7-1.1,7.7-3.4,15.6-5.2c14.9-3.3,24.4-8.3,21.4-11.3c-1.5-1.5-15.1,0.7-33.2,5.5
	c-5.6,1.5-5.4,1,2.2-5.6c12.6-10.8,5.5-11.9-12.6-2c-18.2,10-28.6,10.8-48.7,3.9c-22.8-7.9-59.9-26.7-62.7-31.8
	c-3.4-6.4-1.5-6.2,4.7,0.5c2.7,2.9,5,4.4,5,3.4c0-1.1,1.6-0.6,3.7,1.1c3,2.5,3.7,2.3,3.7-1.4c0-3.7,1.2-3.2,7.6,2.7l7.6,7.2
	l-1.5-7.8c-1.5-7.7-1.4-7.8,5.2-5c3.6,1.6,8.3,4.1,10.3,5.6c9.4,7.3,10.5,7.1,8.8-1.4c-1.3-6.5-1-7.6,1.3-5.3
	c4.2,4.2,14.2,3.8,14.2-0.7c0-4.5,3.9-4.8,6.5-0.4c1.1,1.8,5,5.2,8.7,7.5c5.5,3.6,6.7,3.7,6.7,0.8c0-2-2.2-5.5-4.9-7.9
	c-2.7-2.4-4.9-5.6-4.9-6.9s0.6-1.7,1.4-0.9c0.8,0.8,3.2-0.2,5.3-2.3c2.6-2.6,6.6-3.4,12.9-2.6c6.3,0.9,9.6,0.2,10.4-2.1
	c1-2.5,3.2-2.7,9.3-1c21.5,6.2,25.4-0.9,4.7-8.4c-14-5.1-15.8-7.6-2.7-3.9c16.7,4.8,38.3,1.2,29.2-4.9c-2-1.3-8.6-2.6-14.6-2.7
	c-9.3-0.3-9.9-0.5-3.9-1.8c3.9-0.8,7.6-3.1,8.2-4.9c0.9-2.8-2.9-3.2-23.6-1.8c-24.4,1.7-24.8,1.7-21.8-3.1c4.5-7.1,1.4-8.4-10.7-4.3
	c-6.6,2.2-15,3.2-21.5,2.4c-14.1-1.7-60.7-17.3-66.2-22.2c-5.7-5-5.4-8.5,0.6-6.6c2.7,0.9,4.9,0.4,4.9-1c0-2.6,3.6-1.9,15.8,3.4
	c4,1.8,12.8,3.2,19.6,3.3c6.8,0,13.4,0.3,14.6,0.5c5.7,1.1,6.3-0.6,2.1-5.6c-3.1-3.6-2.1-3.2,2.8,1.2c8.4,7.6,10.8,8.3,10.8,3
	c0-3.2,0.8-3.2,6.2,0.4c3.7,2.4,7,3.2,7.9,1.8c0.9-1.3,4.9-3.7,8.9-5.5c7-3.1,7.1-3.3,2.6-6.6c-5.5-4-4.1-4.4,4.6-1.1
	c4.7,1.8,6.3,1.6,6.3-0.8c0-1.9,6.2-4.5,15.8-6.5c8.7-1.8,15.8-4.3,15.8-5.5c0-1.2,1-1.4,2.4-0.6c1.3,0.8,4.4,0.4,6.7-0.9
	c3.7-2.1,3.4-2.6-2.5-4.1c-5.1-1.3-6.4-2.8-5.3-6.1c1-3.3-0.1-4.6-4.2-5.2c-3.9-0.6-1.1-2.3,9.6-5.7c16.6-5.3,20.7-10.1,6.2-7.2
	c-13.5,2.6-46.9,3.2-46.9,0.8c0-1.1,1.1-2.1,2.4-2.1c1.3,0,2.4-1.1,2.4-2.4c0-1.3-5.2-2.3-11.6-2.2c-16,0.3-41.5-5-43.1-9.1
	c-0.9-2.3,0.7-3.4,4.8-3.4c3.3,0,6-1.1,6-2.4c0-1.3,1.6-1.8,3.7-1c2,0.8,3.7,0.1,3.7-1.5c0-1.9,1.8-1.5,5.4,1
	c3,2.1,8.2,3.8,11.6,3.7l6.2-0.1l-5.6-4.7l-5.6-4.6l11.6-0.8l11.7-0.8l-8.5-4.1l-8.5-4.1l7.5-0.1c4.8-0.1,9.6-2.3,13.2-6.2
	c3.2-3.3,6.8-6.1,8.3-6.1c1.5,0,4.1-2.2,5.8-4.9c4.5-7.1-1.2-8.6-15.2-3.8c-15.1,5.1-18.2,5-16.7-1c1.5-5.9,1.1-5.9-14.2-0.9
	c-11.6,3.8-12.8,3.7-31.4-1.6c-25.1-7.1-31.5-13.8-12.2-12.7c2,0.1,4.4-1,5.3-2.5c1.2-1.9,3.2-1.5,6.6,1.6c3.8,3.5,7,4.1,14.8,2.7
	c11.1-1.9,11.8-2.8,5.6-7.8c-4.4-3.6-2.8-3.5,7.7,0.7c3.7,1.5,4.4,1.1,3.1-2.2c-1.2-3-0.2-4,3.5-4c3.4,0,4.6-1.2,3.7-3.5
	c-0.7-1.9-0.1-4,1.5-4.7c2-0.9,1.8-2.3-1.1-4.6c-3.7-3-3.5-3.7,1.8-8.9c8.8-8.4,7.1-10.2-5.7-6.1c-32,10.3-43.7,10.9-51.5,2.5
	c-4.4-4.7-4.7-6-1.8-7.2c2-0.8,6.9-0.2,11,1.4c10.4,3.9,12.6,0,4-7c-6.1-4.9-6.5-5.8-2.4-5.5c8.5,0.7,13.4-0.2,13.4-2.7
	c0-1.3-1.9-2.5-4.3-2.6c-3.5-0.1-3.3-0.6,0.8-2.3c2.8-1.1,5.8-3.8,6.6-5.9c1.3-3.4,0.8-3.5-3.9-0.9c-8.5,4.8-59.3,4-70-1
	c-7.5-3.5-7.9-4-2.8-4.2c4.6-0.2,5.6-1.2,4.5-5.3c-1.2-4.6-0.9-4.7,2.7-1.6c5.3,4.6,12.6,7.1,12.6,4.4c0-1.2,2.2-1.6,4.9-0.9
	c2.7,0.7,4.9,0.1,4.9-1.4c0-1.5,2.7-2.7,6.1-2.7c8.1,0,7.7-2.4-1.7-10.1l-7.8-6.4l13,2.1c13.4,2.1,18.3,1.2,15.8-2.9
	c-2.5-4,4-9.4,11.4-9.4c8.3,0,9.4-4,1.6-5.7c-3.1-0.7-1.8-1.1,3-0.9c5.5,0.2,8.3-0.7,7.9-2.6c-0.3-1.6,0.5-3,2.1-3
	c1.8,0,1.7-1.2-0.4-3.8c-2-2.4-5.4-3.4-9.4-2.6c-3.4,0.7-4.9,0.7-3.2,0c5.6-2.4,3.1-6.3-3-4.8c-4.9,1.2-5.7,0.8-4.4-2.6
	c1.1-3,0.6-3.5-1.8-2.1c-1.8,1.1-6.1,2.2-9.5,2.5c-3.5,0.3-9,1.3-12.3,2.2l-6.1,1.7l6.7-5.7c7.7-6.6,8.9-10.5,2-6.8
	c-6.8,3.6-11.8,3.3-8-0.5c5.5-5.5,3.3-9.8-2.3-4.6c-2.9,2.7-8.6,6.5-12.8,8.4c-14.9,7.1-55-2.6-55-13.2c0-2.1-1.4-5.2-3-6.8
	c-2-2-2-2.9-0.2-2.9c1.5,0,3.3,1.6,4,3.7c0.9,2.3,4.4,3.5,9.4,3.4c4.4-0.2,10.5,0.5,13.5,1.5c4.5,1.5,5.5,0.8,5.5-3.4v-5l8.3,4.9
	c6,3.5,8.8,4.2,10,2.1c1-1.6,0.2-3.9-1.6-5.1c-2.9-1.9,11.3-1.7,21,0.4c1.3,0.3,4.9-0.3,8-1.3c5.1-1.7,5.2-2.1,1.7-6.1
	c-3.6-4-3.4-4.3,2.4-5.8c7-1.8,8.4-6.3,2-6.5c-2.7-0.1-1.6-1.3,3-3.4c4-1.8,10.5-6,14.5-9.3l7.1-5.9l-8.9-1.7c-4.9-0.9-9-2.7-9-4
	c0-1.4-2.8-1.7-6.7-0.8c-5.8,1.5-6.4,1.2-3.7-2.1c4.7-5.7-2.3-7.5-9.5-2.4c-3.4,2.4-10.7,4.2-17.7,4.3c-9.6,0.1-11-0.3-6.8-2.2
	c4.7-2.1,5.2-4.1,3.1-13.4c-0.1-0.4-3.9,1.5-8.4,4.3c-4.5,2.8-11.9,5-16.4,5c-15.2,0-41.3-10.2-57.9-22.5c-6.4-4.7-5-5.7,2.4-1.8
	c3.8,2.1,4.7,1.7,4.8-1.8c0.1-4.2,0.2-4.2,2.6-0.1c1.4,2.4,3.5,3.7,4.7,3c1.2-0.8,5,0.4,8.4,2.7c6.1,4,6.1,3.9,6.2-3
	c0-3.8,0.8-5.7,1.8-4.3c2.1,3.2,11.3,8.3,15,8.3c1.4,0,2.8-2.5,2.9-5.5c0.2-5.2,0.3-5.2,1.9,0.6c0.9,3.3,2.2,5.6,2.8,5
	c0.6-0.6,3.4,0.2,6.2,1.7c4.1,2.2,5.7,1.8,8.4-1.9c1.8-2.5,4.3-4,5.4-3.3c1.2,0.7,1.3-1.5,0.5-5c-1.5-6.1-1.3-6.3,5.1-3.8
	c7.9,3,10.4,1.5,6.1-3.7c-2.6-3.1-2.3-3.7,1.3-3.7c4.1,0,4-0.3,0.1-4.6c-2.3-2.5-3.1-5.2-1.9-6c1.3-0.8,4.2,0.7,6.5,3.4
	c3.7,4.1,6.1,4.5,15.5,2.6c0.5-0.1-0.3-1.6-1.8-3.4c-3.2-3.8-1.3-6.5,4.6-6.5c2.3,0,6.8-2.2,10-4.8l5.8-4.8l-7.3-0.5
	c-4-0.3-10-0.2-13.2,0.1c-5.1,0.5-5.5,0-2.7-3.3c5.3-6.4,1.6-6.4-7.8,0c-10.2,6.9-16.4,8.1-11.5,2.3c2.6-3.1,2.4-3.5-0.9-2.2
	c-4.7,1.8-5.3-1.5-1.1-5.7c6.2-6.2-0.4-5.3-8.1,1.1c-15.1,12.7-17,13.1-34.1,7.9c-17.9-5.4-30-12.2-33.6-19
	c-2.2-4.1-1.7-4.7,3.6-4.4c3.3,0.2,6.6,2.1,7.2,4.1c0.7,2.1,3.5,3.9,6.3,4.1c4.1,0.3,4.8-0.7,3.7-4.9c-1.2-4.7-0.7-4.5,4.3,1.4
	c3.1,3.6,8.1,6.6,11.1,6.6c4.8,0,5.3-0.9,4.1-7.1c-1.8-9.2,3.9-11.8,9.8-4.3c4.1,5.1,17.8,8.6,17.8,4.6c0-1-3.6-4.7-7.9-8.4
	c-6.1-5.1-6.9-6.6-3.6-6.7c2.4,0,4.9,1.5,5.7,3.5c0.8,2,2.3,3.1,3.4,2.4c1.1-0.7,2.7-0.1,3.5,1.2c0.8,1.4,4.5,2.5,8,2.5
	c6.1,0,6.2-0.2,1.7-3.5c-4.6-3.3-4.5-3.6,2.1-6.1c3.8-1.4,8.2-2.6,9.7-2.7c1.6,0,0.2-1.6-3.2-3.5c-5.9-3.3-5.9-3.4,3.4-2.5
	c6,0.6,10.7-0.4,12.9-2.6c5.4-5.4,1.6-8.4-10.5-8.4c-6.7,0-10.4-1-9.4-2.5c3.1-5-5.9-5.1-16.1-0.2c-12.4,6-14.7,6.3-12.9,1.4
	c0.9-2.3,0-3.7-2.4-3.7c-2.4,0-3.3-1.4-2.4-3.7c1.6-4.3,0.8-4.4-7.2-1.4c-5.2,2-5.8,1.7-4.7-2.4c1.3-4.9-2.8-6.6-5.5-2.3
	c-0.8,1.4-6,4.8-11.5,7.6c-8.8,4.5-11.1,4.7-19.8,2.1c-8.1-2.4-9.1-3.3-5.7-5.2c2.3-1.3,4.2-4,4.2-6c0-2.9-2.5-3.6-11-3
	c-8.3,0.5-12.1-0.5-15.7-4.1c-5.3-5.4-10.5-24.7-7.2-26.8c2.1-1.3,3.2,3.9,2.4,10.6c-0.2,1.7,1.9,6.4,4.8,10.4
	c4.2,5.9,5.9,6.8,8.7,4.5c1.9-1.6,3.5-5.7,3.7-9.2c0.2-5.1,0.6-5.4,1.5-1.5c1.8,7.6,8.2,13.4,14.5,13.4c5,0,5.4-0.7,3.3-4.7
	c-3.2-5.9-3.2-8.2-0.1-6.2c1.3,0.8,2.4,0.4,2.4-1.1s1.1-2.6,2.4-2.6c1.3,0,2.4,1.5,2.4,3.4c0,4.4,14.2,16.5,17.2,14.7
	c1.2-0.8,2.3-3.5,2.3-6.1c0-2.6,1.1-4.7,2.5-4.7c1.4,0,1.9-1.4,1.1-3c-0.9-1.7,0.5-0.6,3,2.5c2.5,3.1,5.4,4.8,6.4,3.8
	c1-1,4.2-2.2,7.2-2.6c6.6-0.9,16.4-5.8,16.4-8.1c0-1-3.3-3.1-7.2-4.7c-4-1.6-7-4.2-6.7-5.8c0.3-1.6-2.8-2.9-6.9-3
	c-8.5-0.3-20.9-6.1-16.3-7.6c1.7-0.6,3-2.6,3-4.5c0-3.9-12.2-4.9-16-1.3c-3.7,3.4-13.2,5.7-13.2,3.1c0-1.3,2.8-3,6.2-3.9
	c5.2-1.3,5.8-2.2,3.4-5.2c-2.4-2.9-2-3.5,1.7-3.6c5.4-0.1,14.6-6.6,12.4-8.8c-0.8-0.8-6.5-2.1-12.6-2.7c-12.2-1.4-12.1-1.3-8.5-8.1
	c2.3-4.4,2.9-4.4,8.3-0.9c5.4,3.6,5.9,3.4,7.4-1.3c0.9-2.8,2.6-4.4,3.9-3.7c1.2,0.8,2.3,0.3,2.3-1.1c0-1.4,2.2-2.6,4.9-2.6
	c2.7,0,4.9-1.6,4.9-3.4c0-3.7-5.2-6.3-12.4-6.3c-5.5,0-6.3-4.5-1.1-6.5c2-0.8,3.1-2.2,2.5-3.2c-0.6-1,1.6-3.2,5-5
	c8.2-4.4,6.2-8.5-4.3-8.5h-8.6l6.2-8.1c4.8-6.3,5.5-8.7,3.1-11c-2.3-2.3-4.7-1-11,5.8c-7.4,8.1-8.2,8.4-10.8,4.3
	c-1.5-2.5-3.9-4.4-5.2-4.4c-2.9,0-10.6,13.6-12.3,21.8c-1.2,6-23.7,25.2-27,23.1c-1-0.6-1.4-7.1-1.1-14.5c0.3-7.4-0.4-13.4-1.6-13.4
	c-1.2,0-1.8-4-1.4-9c0.6-7.5,1.9-9.3,7.5-10.8c5.9-1.6,6.6-1.2,5.4,2.7c-2.2,7,3.7,8.8,8.4,2.5c2.5-3.3,4.9-4.6,5.8-3
	c1.7,2.7,11.3,1.3,11.3-1.7c0-2.3-12.1-13.6-14.2-13.3c-0.9,0.1-3.5-0.3-5.9-0.9c-6.9-1.8-2.4-5.2,4.9-3.7c12.2,2.5,23.2,2,24.3-1.1
	c0.6-1.7-0.6-3-2.5-3c-2,0-4.9-1.7-6.5-3.7c-1.7-2-4-3-5.2-2.3c-1.2,0.7-2.1,0.5-2.1-0.6c0-1.1,3.3-4.2,7.3-6.9
	c7.4-4.9,9.4-8.5,4.8-8.5c-4.4,0-20.4,7.4-22.5,10.4c-1.3,1.8-1.5,0.9-0.6-2.4c0.8-2.9,0.4-5.9-0.8-6.7c-2.7-1.6-12.5,14-12.5,19.9
	c0,2.2-0.7,3.2-1.6,2.4c-0.9-0.9-3.1,0.3-4.9,2.6c-2.9,3.7-3.1,2.7-2.1-7.7c1-9.6,3.3-14.3,12.2-24.7c6-7.1,11-14.4,11-16.4
	c0-5.9-12.2-2-14.8,4.6c-4,10.6-8.4,6.9-7.5-6.2c0.7-9.6-0.2-13.2-4.3-17.6l-2.5-2.6c-1-1-2.7-0.4-2.8,1L527.7,32.9z M511.5,112.5
	c1.1,0.1,3.8,2.2,6.8,5.6c5,5.6,7.3,10.7,7.3,16.2c0,4.4-0.5,8.1-1,8.1c-1.3,0-4.4-7.5-5.6-13.3c-0.5-2.6-2.5-6.5-4.5-8.7
	c-2-2.2-3.6-5.5-3.6-7.3C510.9,112.6,511.1,112.5,511.5,112.5L511.5,112.5z M505.5,148.3c4.6,0.3,15.9,8.1,17.7,12.8
	c3.2,8.3,1.4,9.9-4.1,3.5c-2.4-2.8-5.7-5.1-7.4-5.1c-2.8,0-9.5-9.4-7.7-10.9C504.3,148.3,504.9,148.2,505.5,148.3L505.5,148.3z
	 M572.1,168.1c0.6,0,1.3,0.1,2.1,0.3c4,1.1,3.1,2.5-6.3,9.7c-6.1,4.6-13.2,8.6-15.8,8.8c-2.5,0.2-4.6,1.1-4.6,2.2c0,1.1-1.2,2-2.7,2
	c-1.4,0-2.3-2.5-1.8-5.5c0.7-4.7,2.1-5.4,10-4.7c7,0.6,9.1-0.1,9.1-3c0-2.1,1.6-3.8,3.7-3.8c2,0,3.7-1.5,3.7-3.4
	C569.4,169,570.3,168.1,572.1,168.1L572.1,168.1z M457.8,300.8c1.7,0.2,3.7,1.3,5.3,3.3c4.9,6.2,13.1,7.1,17.7,1.7
	c4-4.7,9.7-4.7,6.9-0.1c-0.8,1.2,0.3,2.3,2.3,2.3c2,0,4.3-1.1,5.2-2.4c2-3.2,6.1-3.2,6.1,0c0,1.4-3,3.7-6.7,5.1
	c-3.7,1.4-13,3.1-20.6,3.8c-12.1,1.1-14.1,0.7-16.4-3.7c-1.5-2.7-2.6-6.1-2.6-7.5C454.9,301.5,456.1,300.7,457.8,300.8L457.8,300.8z
	 M358.1,756.4l5.6,5.9l5.5,5.9l4.2-6.4c3.8-5.8,4.3-5.9,6.5-2c1.8,3.2,2.9,3.5,4.3,1.2c1.3-2.2,2.3-1.6,3.5,2.1
	c1.7,5.2,6.2,7.3,6.2,2.8c0-1.3,3-2.4,6.7-2.4h6.7l-7.3,3.9c-4.7,2.5-11,3.4-17.7,2.7c-5.7-0.6-9.7-0.1-9,1.1
	c1.9,3.1-1.7,2.5-9.2-1.4c-3.8-2-6.8-2.4-7.3-1.1c-0.4,1.3-2.8,1.6-5.2,0.7c-4-1.5-3.9-2.1,1.1-7.4L358.1,756.4L358.1,756.4z"/>
</svg>
